<svg aria-hidden="true" style="position: absolute; width: 0; height: 0; overflow: hidden;" version="1.1" xmlns="http://www.w3.org/2000/svg" xmlns:xlink="http://www.w3.org/1999/xlink">
  <defs>
    <symbol id="icon-arrow" viewBox="0 0 32 32">
      <path d="M23.496 1.148c-0.094-0.652-0.649-1.148-1.32-1.148-0.066 0-0.13 0.005-0.194 0.014l0.007-0.001-11.883 1.669c-0.652 0.094-1.148 0.65-1.148 1.321 0 0.737 0.597 1.334 1.334 1.334 0.065 0 0.13-0.005 0.193-0.014l-0.007 0.001 10.563-1.484 1.485 10.563c0.107 0.639 0.655 1.12 1.316 1.12 0.736 0 1.333-0.597 1.333-1.333 0-0.056-0.003-0.111-0.010-0.165l0.001 0.006zM8.796 21.303l14.444-19.167-2.129-1.605-14.444 19.168z"></path>
    </symbol>
    <symbol id="icon-chevron-up" viewBox="0 0 32 32">
      <path stroke-linejoin="round" stroke-linecap="round" stroke-miterlimit="4" stroke-width="3.2" d="M8 20l8-8 8 8"></path>
    </symbol>
    <symbol id="icon-chevron-down" viewBox="0 0 32 32">
      <path stroke-linejoin="round" stroke-linecap="round" stroke-miterlimit="4" stroke-width="3.2" d="M8 12l8 8 8-8"></path>
    </symbol>
    <symbol id="icon-clock" viewBox="0 0 32 32">
      <path stroke-linejoin="round" stroke-linecap="round" stroke-miterlimit="4" stroke-width="2.4" d="M16 29.333c7.364 0 13.333-5.969 13.333-13.333s-5.969-13.333-13.333-13.333v0c-7.364 0-13.333 5.969-13.333 13.333s5.969 13.333 13.333 13.333v0"></path>
      <path stroke-linejoin="round" stroke-linecap="round" stroke-miterlimit="4" stroke-width="2.4" d="M16 8v8l5.333 2.667"></path>
    </symbol>
    <symbol id="icon-eye-off" viewBox="0 0 32 32">
      <path stroke-linejoin="round" stroke-linecap="round" stroke-miterlimit="4" stroke-width="3.2" d="M23.92 23.92c-2.175 1.671-4.923 2.695-7.908 2.747l-0.012 0c-9.333 0-14.667-10.667-14.667-10.667 1.714-3.151 3.978-5.79 6.689-7.877l0.058-0.043M13.2 5.653c0.833-0.203 1.788-0.32 2.771-0.32 0.010 0 0.020 0 0.030 0h-0.002c9.333 0 14.667 10.667 14.667 10.667-0.871 1.615-1.826 3.008-2.91 4.289l0.030-0.036M18.827 18.827c-0.731 0.774-1.764 1.256-2.91 1.256-2.209 0-4-1.791-4-4 0-1.146 0.482-2.179 1.254-2.909l0.002-0.002M1.333 1.333l29.334 29.334"></path>
    </symbol>
    <symbol id="icon-eye" viewBox="0 0 32 32">
      <path stroke-linejoin="round" stroke-linecap="round" stroke-miterlimit="4" stroke-width="3.2" d="M1.333 16s5.334-10.667 14.667-10.667 14.667 10.667 14.667 10.667-5.334 10.667-14.667 10.667-14.667-10.667-14.667-10.667"></path>
      <path stroke-linejoin="round" stroke-linecap="round" stroke-miterlimit="4" stroke-width="3.2" d="M16 20c2.209 0 4-1.791 4-4s-1.791-4-4-4v0c-2.209 0-4 1.791-4 4s1.791 4 4 4v0"></path>
    </symbol>
    <symbol id="icon-question" viewBox="0 0 32 32">
      <path d="M11.294 10.001c0-2.208 1.688-4 3.765-4h1.882c2.076 0 3.765 1.792 3.765 4v0.224c0 1.363-0.653 2.632-1.73 3.362l-2.483 1.694c-0.735 0.511-1.325 1.18-1.729 1.961l-0.014 0.030c-0.414 0.808-0.632 1.713-0.632 2.635v0.092c0 1.107 0.841 2.001 1.882 2.001s1.882-0.894 1.882-2.001v-0.087c0-0.514 0.247-0.988 0.648-1.263l2.481-1.694c2.155-1.476 3.46-4.006 3.46-6.731v-0.226c0-4.418-3.369-8-7.529-8h-1.882c-4.16 0-7.529 3.582-7.529 8 0 1.107 0.841 2.001 1.882 2.001s1.882-0.894 1.882-1.999zM16 30.001c0.625 0 1.224-0.264 1.664-0.734 0.44-0.469 0.689-1.103 0.689-1.768 0-0.663-0.248-1.299-0.689-1.768-0.415-0.449-1.007-0.73-1.663-0.732h-0c-0.625 0-1.224 0.264-1.664 0.734-0.427 0.459-0.689 1.076-0.689 1.755 0 0.004 0 0.008 0 0.012v-0.001c0 0.664 0.248 1.299 0.689 1.769 0.442 0.469 1.039 0.732 1.664 0.732z"></path>
    </symbol>
    <symbol id="icon-check" viewBox="0 0 32 32">
      <path d="M4 12l-4 4 12 12 20-20-4-4-16 16z"></path>
    </symbol>
    <symbol id="icon-user" viewBox="0 0 32 32">
      <path d="M16 5.333c2.946 0 5.333 2.388 5.333 5.333s-2.388 5.333-5.333 5.333v0c-2.946 0-5.333-2.388-5.333-5.333s2.388-5.333 5.333-5.333v0zM16 18.667c5.893 0 10.667 2.387 10.667 5.333v2.667h-21.333v-2.667c0-2.947 4.773-5.333 10.667-5.333z"></path>
    </symbol>
    <symbol id="icon-users" viewBox="0 0 32 32">
      <path d="M18.266 21.752l-0.547 2.044-14.307-3.834 0.548-2.044s1.096-4.087 8.248-2.171 6.058 6.004 6.058 6.004zM17.293 11.086c0.080-0.287 0.126-0.617 0.126-0.958 0-2.045-1.658-3.704-3.704-3.704-1.705 0-3.14 1.152-3.572 2.72l-0.006 0.026c-0.080 0.287-0.126 0.617-0.126 0.958 0 2.045 1.658 3.704 3.704 3.704 1.705 0 3.141-1.152 3.571-2.72l0.006-0.026zM19.302 17.649c0.716 0.935 1.148 2.121 1.148 3.407 0 0.441-0.051 0.87-0.147 1.282l0.007-0.038-0.548 2.043 4.088 1.096 0.548-2.043s0.993-3.709-5.098-5.747zM20.804 8.195c-0.284-0.081-0.611-0.128-0.948-0.128-0.425 0-0.833 0.074-1.211 0.21l0.025-0.008c0.214 0.553 0.338 1.192 0.338 1.861 0 1.642-0.749 3.109-1.923 4.079l-0.009 0.007c0.475 0.553 1.106 0.947 1.811 1.132 0.287 0.080 0.617 0.126 0.958 0.126 2.045 0 3.702-1.658 3.702-3.702 0-1.704-1.151-3.139-2.718-3.57l-0.026-0.006z"></path>
    </symbol>
    <symbol id="icon-favorite-hover" viewBox="0 0 32 32">
      <path stroke-linejoin="round" stroke-linecap="round" stroke-miterlimit="4" stroke-width="2.4615" d="M27.787 6.146c-1.327-1.328-3.161-2.149-5.187-2.149s-3.86 0.821-5.187 2.149l-1.413 1.414-1.413-1.414c-1.328-1.327-3.161-2.149-5.187-2.149-4.051 0-7.336 3.284-7.336 7.336 0 2.026 0.821 3.86 2.149 5.187l11.787 11.786 11.787-11.787c1.327-1.327 2.148-3.161 2.148-5.186s-0.821-3.859-2.148-5.186v0"></path>
    </symbol>
    <symbol id="icon-favorite-normal" viewBox="0 0 32 32">
      <path stroke-linejoin="round" stroke-linecap="round" stroke-miterlimit="4" stroke-width="2.4615" d="M27.787 6.146c-1.327-1.328-3.161-2.149-5.187-2.149s-3.86 0.821-5.187 2.149l-1.413 1.413-1.413-1.413c-1.328-1.327-3.161-2.149-5.187-2.149-4.051 0-7.336 3.284-7.336 7.336 0 2.026 0.821 3.86 2.149 5.187l11.787 11.786 11.787-11.787c1.327-1.327 2.148-3.161 2.148-5.186s-0.821-3.859-2.148-5.186v0"></path>
    </symbol>
    <symbol id="icon-menu" viewBox="0 0 32 32">
      <path d="M5 24v0c0 0.552 0.448 1 1 1h20c0.552 0 1-0.448 1-1s-0.448-1-1-1h-20c-0.552 0-1 0.448-1 1zM5 16v0c0 0.552 0.448 1 1 1h20c0.552 0 1-0.448 1-1s-0.448-1-1-1h-20c-0.552 0-1 0.448-1 1zM5 8v0c0 0.552 0.448 1 1 1h20c0.552 0 1-0.448 1-1s-0.448-1-1-1h-20c-0.552 0-1 0.448-1 1z"></path>
    </symbol>
    <symbol id="icon-close" viewBox="0 0 32 32">
      <path stroke-linejoin="round" stroke-linecap="round" stroke-miterlimit="4" stroke-width="2.5" d="M24 8l-16 16M8 8l16 16"></path>
    </symbol>
  </defs>
</svg>